<?xml version="1.0" encoding="utf-8"?>
<?xml-stylesheet type="text/xsl" href="rss1.xsl"?>
<rss version="2.0" xmlns:atom="http://www.w3.org/2005/Atom" xmlns:content="http://purl.org/rss/1.0/modules/content/" xmlns:dc="http://purl.org/dc/elements/1.1/" xmlns:media="http://search.yahoo.com/mrss/">
<channel>
 <title>Getty</title>
 <link>http://www.gettyimg.com/</link>
 <atom:link href="http://www.gettyimg.com/" rel="self" type="application/rss+xml" />

 
                <item>
                <title><![CDATA[【Apple Music】WEB-RiP - Coldplay - Humankind 2160p AM WEB-DL AAC2.0 H.265-SZYMIX]]></title>
                <link><![CDATA[https://sharemania.us/threads/coldplay-humankind-2160p-am-web-dl-aac2-0-h-265-szymix.239729/]]></link>
                <description><![CDATA[<article>
<blockquote class="messageText SelectQuoteContainer ugc baseHtml">
<img src="https://cdn01.justjared.com/wp-content/uploads/2022/08/coldplay-humankind-gall/coldplay-humankind-music-video-06.jpeg" class="bbCodeImage LbImage" alt="[​IMG]" data-url="https://cdn01.justjared.com/wp-content/uploads/2022/08/coldplay-humankind-gall/coldplay-humankind-music-video-06.jpeg" style=""><br>
<img src="https://i.postimg.cc/cHRgSPFr/Coldplay-Humankind-2160p-AM-WEB-DL-AAC2-0-H-265-SZYMIX-mkv.jpg" class="bbCodeImage LbImage" alt="[​IMG]" data-url="https://i.postimg.cc/cHRgSPFr/Coldplay-Humankind-2160p-AM-WEB-DL-AAC2-0-H-265-SZYMIX-mkv.jpg" style=""> <br>
<div class="ToggleTriggerAnchor bbCodeSpoilerContainer">
<button type="button" class="button bbCodeSpoilerButton ToggleTrigger Tooltip JsOnly" data-target="> .SpoilerTarget"><span>Spoiler: <span class="SpoilerTitle">Media Info</span></span></button>
<div class="SpoilerTarget bbCodeSpoilerText">General<br>
Complete name : Coldplay - Humankind 2160p AM WEB-DL AAC2.0 H.265-SZYMIX.mkv<br>
Format : MPEG-4<br>
Format profile : Base Media<br>
Codec ID : isom (isom/iso4)<br>
File size : 696 MiB<br>
Duration : 4 min 42 s<br>
Overall bit rate mode : Variable<br>
Overall bit rate : 20.7 Mb/s<br>
Frame rate : 23.976 FPS<br>
Movie name : Humankind<br>
Performer : Coldplay<br>
Genre : Alternative<br>
ContentType : Music Video<br>
Encoded date : 2024-03-11 14:51:22 UTC<br>
Tagged date : 2024-03-11 14:51:22 UTC<br>
Copyright : ℗ Under exclusive licence to Parlophone Records Limited., © 2022 Coldplay<br>
Cover : Yes<br>
Rating : None<br>
GenreID : 1620<br>
AppleStoreCountry : United States<br>
AlbumTitleID : 471744<br>
AppleStoreCatalogID : 1640301588<br>
FileExtension_Invalid : braw mov mp4 m4v m4a m4b m4p m4r 3ga 3gpa 3gpp 3gp 3gpp2 3g2 k3g jpm jpx mqv ismv isma ismt f4a f4b f4v<br>
<br>
Video<br>
ID : 2<br>
Format : HEVC<br>
Format/Info : High Efficiency Video Coding<br>
Format profile : Main 10@L5@High<br>
Codec ID : hvc1<br>
Codec ID/Info : High Efficiency Video Coding<br>
Duration : 4 min 42 s<br>
Bit rate : 20.4 Mb/s<br>
Maximum bit rate : 39.9 Mb/s<br>
Width : 3 840 pixels<br>
Height : 2 160 pixels<br>
Display aspect ratio : 16:9<br>
Frame rate mode : Constant<br>
Frame rate : 23.976 (24000/1001) FPS<br>
Color space : YUV<br>
Chroma subsampling : 4:2:0<br>
Bit depth : 10 bits<br>
Scan type : Progressive<br>
Bits/(Pixel*Frame) : 0.102<br>
Stream size : 686 MiB (99%)<br>
Title : Core Media Video<br>
Encoded date : 2024-02-15 13:30:10 UTC<br>
Tagged date : 2024-03-11 14:51:24 UTC<br>
Color range : Limited<br>
Color primaries : BT.709<br>
Transfer characteristics : BT.709<br>
Matrix coefficients : BT.709<br>
Codec configuration box : hvcC<br>
<br>
Audio<br>
ID : 1<br>
Format : AAC LC<br>
Format/Info : Advanced Audio Codec Low Complexity<br>
Codec ID : 2 / 40 / mp4a-40-2<br>
Duration : 4 min 42 s<br>
Duration_LastFrame : -21 ms<br>
Bit rate mode : Variable<br>
Bit rate : 270 kb/s<br>
Maximum bit rate : 332 kb/s<br>
Channel(s) : 2 channels<br>
Channel layout : L R<br>
Sampling rate : 48.0 kHz<br>
Frame rate : 46.875 FPS (1024 SPF)<br>
Compression mode : Lossy<br>
Stream size : 9.08 MiB (1%)<br>
Title : Core Media Audio<br>
Encoded date : 2024-02-15 13:29:58 UTC<br>
Tagged date : 2024-03-11 14:51:24 UTC</div>
</div>Ripped by me <img src="styles/default/xenforo/smilies/big_smile-48.png" class="mceSmilie" alt=":)" title="Smile    :)"><br>
<div class="bbCodeBlock bbCodeVfcHH HiddenContent">
<div class="attribution type">Hidden Content:</div>
<blockquote>You must either reply or click 'Like' to see the hidden information contained here.</blockquote>
</div>
<div class="messageTextEndMarker">&nbsp;</div>
</blockquote>
</article>]]></description>
                <author><![CDATA[szymek04sawicki]]></author>
                </item>

                
                <item>
                <title><![CDATA[【Apple Music】WEB-RiP - Coldplay - Biutyful 1632p AM WEB-DL AAC2.0 H.265-SZYMIX]]></title>
                <link><![CDATA[https://sharemania.us/threads/coldplay-biutyful-1632p-am-web-dl-aac2-0-h-265-szymix.239730/]]></link>
                <description><![CDATA[<article>
<blockquote class="messageText SelectQuoteContainer ugc baseHtml">
<img src="https://pics.filmaffinity.com/Coldplay_Biutyful_Music_Video-302407669-large.jpg" class="bbCodeImage LbImage" alt="[​IMG]" data-url="https://pics.filmaffinity.com/Coldplay_Biutyful_Music_Video-302407669-large.jpg" style=""> <br>
<img src="https://i.postimg.cc/JzBKVzCx/Coldplay-Biutyful-1632p-AM-WEB-DL-AAC2-0-H-265-SZYMIX-mkv.jpg" class="bbCodeImage LbImage" alt="[​IMG]" data-url="https://i.postimg.cc/JzBKVzCx/Coldplay-Biutyful-1632p-AM-WEB-DL-AAC2-0-H-265-SZYMIX-mkv.jpg" style=""> <br>
<div class="ToggleTriggerAnchor bbCodeSpoilerContainer">
<button type="button" class="button bbCodeSpoilerButton ToggleTrigger Tooltip JsOnly" data-target="> .SpoilerTarget"><span>Spoiler: <span class="SpoilerTitle">Media Info</span></span></button>
<div class="SpoilerTarget bbCodeSpoilerText">General<br>
Complete name : Coldplay - Biutyful 1632p AM WEB-DL AAC2.0 H.265-SZYMIX.mkv<br>
Format : MPEG-4<br>
Format profile : Base Media<br>
Codec ID : isom (isom/iso4)<br>
File size : 752 MiB<br>
Duration : 4 min 59 s<br>
Overall bit rate mode : Variable<br>
Overall bit rate : 21.1 Mb/s<br>
Frame rate : 23.976 FPS<br>
Movie name : Biutyful<br>
Performer : Coldplay<br>
Genre : Alternative<br>
ContentType : Music Video<br>
Encoded date : 2024-03-11 16:03:54 UTC<br>
Tagged date : 2024-03-11 16:03:54 UTC<br>
Copyright : ℗ Under exclusive licence to Parlophone Records Limited., © 2021 Coldplay<br>
Cover : Yes<br>
Rating : None<br>
GenreID : 1620<br>
AppleStoreCountry : United States<br>
AlbumTitleID : 471744<br>
AppleStoreCatalogID : 1633143329<br>
FileExtension_Invalid : braw mov mp4 m4v m4a m4b m4p m4r 3ga 3gpa 3gpp 3gp 3gpp2 3g2 k3g jpm jpx mqv ismv isma ismt f4a f4b f4v<br>
<br>
Video<br>
ID : 2<br>
Format : HEVC<br>
Format/Info : High Efficiency Video Coding<br>
Format profile : Main 10@L5@High<br>
Codec ID : hvc1<br>
Codec ID/Info : High Efficiency Video Coding<br>
Duration : 4 min 59 s<br>
Duration_LastFrame : -41 ms<br>
Bit rate : 20.8 Mb/s<br>
Maximum bit rate : 49.0 Mb/s<br>
Width : 3 840 pixels<br>
Height : 1 632 pixels<br>
Display aspect ratio : 2.35:1<br>
Frame rate mode : Constant<br>
Frame rate : 23.976 (24000/1001) FPS<br>
Color space : YUV<br>
Chroma subsampling : 4:2:0<br>
Bit depth : 10 bits<br>
Scan type : Progressive<br>
Bits/(Pixel*Frame) : 0.138<br>
Stream size : 742 MiB (99%)<br>
Title : Core Media Video<br>
Encoded date : 2024-02-16 02:52:50 UTC<br>
Tagged date : 2024-03-11 16:03:55 UTC<br>
Color range : Limited<br>
Color primaries : BT.709<br>
Transfer characteristics : BT.709<br>
Matrix coefficients : BT.709<br>
Codec configuration box : hvcC<br>
<br>
Audio<br>
ID : 1<br>
Format : AAC LC<br>
Format/Info : Advanced Audio Codec Low Complexity<br>
Codec ID : 2 / 40 / mp4a-40-2<br>
Duration : 4 min 59 s<br>
Duration_LastFrame : -11 ms<br>
Bit rate mode : Variable<br>
Bit rate : 251 kb/s<br>
Maximum bit rate : 368 kb/s<br>
Channel(s) : 2 channels<br>
Channel layout : L R<br>
Sampling rate : 48.0 kHz<br>
Frame rate : 46.875 FPS (1024 SPF)<br>
Compression mode : Lossy<br>
Stream size : 8.97 MiB (1%)<br>
Title : Core Media Audio<br>
Encoded date : 2024-02-16 02:51:54 UTC<br>
Tagged date : 2024-03-11 16:03:55 UTC</div>
</div>Ripped by me <img src="styles/default/xenforo/smilies/big_smile-48.png" class="mceSmilie" alt=":)" title="Smile    :)"><br>
<div class="bbCodeBlock bbCodeVfcHH HiddenContent">
<div class="attribution type">Hidden Content:</div>
<blockquote>You must either reply or click 'Like' to see the hidden information contained here.</blockquote>
</div>
<div class="messageTextEndMarker">&nbsp;</div>
</blockquote>
</article>]]></description>
                <author><![CDATA[szymek04sawicki]]></author>
                </item>

                </channel></rss>